<svg width="22" height="16" viewBox="0 0 22 16" fill="none" xmlns="http://www.w3.org/2000/svg">
<path id="ARROW" d="M0.539384 7.29289C0.148859 7.68342 0.148859 8.31658 0.539384 8.70711L6.90334 15.0711C7.29387 15.4616 7.92703 15.4616 8.31756 15.0711C8.70808 14.6805 8.70808 14.0474 8.31756 13.6569L2.6607 8L8.31756 2.34315C8.70808 1.95262 8.70808 1.31946 8.31756 0.928932C7.92703 0.538408 7.29387 0.538408 6.90334 0.928932L0.539384 7.29289ZM20.3993 9C20.9515 9 21.3993 8.55228 21.3993 8C21.3993 7.44772 20.9515 7 20.3993 7L20.3993 9ZM1.24649 9L20.3993 9L20.3993 7L1.24649 7L1.24649 9Z" fill="#D2D2D2"/>
</svg>
