<svg width="22" height="16" viewBox="0 0 22 16" fill="none" xmlns="http://www.w3.org/2000/svg">
<path id="ARROW" d="M21.5265 8.70711C21.917 8.31658 21.917 7.68342 21.5265 7.29289L15.1625 0.928933C14.772 0.538408 14.1388 0.538408 13.7483 0.928933C13.3578 1.31946 13.3578 1.95262 13.7483 2.34315L19.4052 8L13.7483 13.6569C13.3578 14.0474 13.3578 14.6805 13.7483 15.0711C14.1388 15.4616 14.772 15.4616 15.1625 15.0711L21.5265 8.70711ZM1.66661 7C1.11433 7 0.666614 7.44772 0.666614 8C0.666614 8.55229 1.11433 9 1.66661 9L1.66661 7ZM20.8194 7L1.66661 7L1.66661 9L20.8194 9L20.8194 7Z" fill="#3D46A2"/>
</svg>
