<svg width="40" height="25" viewBox="0 0 40 25" fill="none" xmlns="http://www.w3.org/2000/svg">
<g id="burger">
<path d="M0 1.90972C0 0.855012 0.895431 0 2 0H38C39.1046 0 40 0.855012 40 1.90972C40 2.96443 39.1046 3.81944 38 3.81944H2C0.895431 3.81944 0 2.96443 0 1.90972Z" fill="black"/>
<path d="M0 12.5C0 11.4453 0.895431 10.5903 2 10.5903H38C39.1046 10.5903 40 11.4453 40 12.5C40 13.5547 39.1046 14.4097 38 14.4097H2C0.895431 14.4097 0 13.5547 0 12.5Z" fill="black"/>
<path d="M0 23.0903C0 22.0356 0.895431 21.1806 2 21.1806H38C39.1046 21.1806 40 22.0356 40 23.0903C40 24.145 39.1046 25 38 25H2C0.895431 25 0 24.145 0 23.0903Z" fill="black"/>
</g>
</svg>
