<svg width="206" height="41" viewBox="0 0 206 41" fill="none" xmlns="http://www.w3.org/2000/svg">
<g clip-path="url(#clip0_1_936)">
<path d="M58.5871 34.4384C61.3587 34.4428 64.0241 33.364 66.0237 31.4285L62.9745 28.3534C61.7791 29.4642 60.2127 30.0804 58.5871 30.079C57.7354 30.083 56.8913 29.9172 56.1033 29.5913C55.3153 29.2653 54.5989 28.7856 53.9953 28.1796C53.3916 27.5737 52.9126 26.8534 52.5858 26.0602C52.259 25.267 52.0907 24.4165 52.0907 23.5576C52.0907 22.6986 52.259 21.8481 52.5858 21.0549C52.9126 20.2618 53.3916 19.5415 53.9953 18.9355C54.5989 18.3295 55.3153 17.8498 56.1033 17.5238C56.8913 17.1979 57.7354 17.0321 58.5871 17.0361C60.2185 17.0334 61.7888 17.6618 62.9745 18.7919L66.0237 15.6867C64.0241 13.7511 61.3587 12.6723 58.5871 12.6767C55.7242 12.6807 52.9797 13.8294 50.9553 15.871C48.9309 17.9126 47.7919 20.6804 47.788 23.5676C47.7972 26.4513 48.9385 29.214 50.9623 31.2512C52.9861 33.2885 55.7277 34.4344 58.5871 34.4384Z" fill="#4097DB"/>
<path d="M90.3727 23.5475C90.3688 20.6603 89.2298 17.8925 87.2054 15.8509C85.181 13.8093 82.4365 12.6607 79.5736 12.6567C76.7124 12.6633 73.9704 13.8132 71.9482 15.8545C69.926 17.8957 68.7883 20.662 68.7844 23.5475C68.7883 26.433 69.926 29.1993 71.9482 31.2406C73.9704 33.2819 76.7124 34.4317 79.5736 34.4384C82.4365 34.4344 85.181 33.2857 87.2054 31.2441C89.2298 29.2026 90.3688 26.4347 90.3727 23.5475ZM79.5736 30.1041C78.7198 30.1041 77.8744 29.9345 77.0856 29.605C76.2968 29.2755 75.5801 28.7926 74.9764 28.1837C74.3727 27.5749 73.8938 26.8521 73.5671 26.0566C73.2404 25.2611 73.0722 24.4085 73.0722 23.5475C73.0722 22.6881 73.2406 21.8372 73.5677 21.0437C73.8949 20.2502 74.3743 19.5297 74.9785 18.9237C75.5827 18.3176 76.2996 17.838 77.0882 17.5124C77.8768 17.1867 78.7215 17.0214 79.5736 17.026C81.2886 17.026 82.9334 17.7131 84.1461 18.9361C85.3589 20.1592 86.0402 21.8179 86.0402 23.5475C86.0447 24.4069 85.8809 25.2587 85.5579 26.054C85.235 26.8492 84.7594 27.5723 84.1585 28.1816C83.5576 28.7909 82.8431 29.2744 82.0563 29.6044C81.2695 29.9343 80.4257 30.1041 79.5736 30.1041Z" fill="#4097DB"/>
<path d="M116.453 34.4384V12.6567H111.812L105.51 28.5791L99.1872 12.6567H94.5413V34.4384H98.844V23.5475L103.177 34.4384H107.818L112.15 23.5475V34.4384H116.453Z" fill="#4097DB"/>
<path d="M124.929 25.7348H126.695C128.406 25.7281 130.044 25.0381 131.251 23.8158C132.459 22.5935 133.137 20.9385 133.137 19.2133C133.141 18.3543 132.976 17.5031 132.653 16.7084C132.33 15.9137 131.854 15.1912 131.253 14.5824C130.652 13.9737 129.938 13.4906 129.152 13.161C128.365 12.8314 127.522 12.6617 126.67 12.6617H120.631V34.4384H124.934L124.929 25.7348ZM124.929 17.0261H126.665C127.239 17.0261 127.79 17.2558 128.197 17.6649C128.604 18.074 128.833 18.629 128.834 19.2083C128.827 19.7835 128.596 20.3329 128.19 20.7369C127.784 21.1408 127.236 21.3667 126.665 21.3654H124.929V17.0261Z" fill="#4097DB"/>
<path d="M146.851 12.6567H142.265L134.445 34.4384H139.036L141.23 28.3433H147.875L150.074 34.4384H154.66L146.851 12.6567ZM142.807 23.979L144.543 19.0678L146.309 23.979H142.807Z" fill="#4097DB"/>
<path d="M176.239 34.4384V12.6567H171.936V27.1996L163.301 12.6567H158.257V34.4384H162.565V19.9256L171.225 34.4384H176.239Z" fill="#4097DB"/>
<path d="M184.655 12.6567H179.84L185.481 24.0642V34.4384H189.784V24.0642L195.43 12.6567H190.615L187.65 18.6915L184.655 12.6567Z" fill="#4097DB"/>
<path d="M123.924 0C123.924 0.0451487 123.964 0.0852808 123.979 0.125413C123.964 0.0852808 123.944 0.0451487 123.924 0Z" fill="#FFFBF8"/>
<path d="M0.213876 19.7851V19.8253V19.9206C0.213876 19.9206 0.213876 19.9557 0.213876 19.9758V20.026V20.0561C0.213876 20.1163 0.213882 20.1764 0.189011 20.2366C0.164139 20.2968 0.189011 20.347 0.189011 20.4022V20.4674C0.189011 20.5326 0.189002 20.6028 0.16413 20.6681C0.139259 20.7333 0.16413 20.7684 0.16413 20.8186V20.8687C0.161672 20.887 0.161672 20.9056 0.16413 20.9239C0.161864 20.9456 0.161864 20.9674 0.16413 20.9891C0.161803 20.999 0.161803 21.0093 0.16413 21.0192C0.166822 21.0358 0.166822 21.0528 0.16413 21.0694V21.1547C0.16413 21.2249 0.16413 21.2951 0.16413 21.3804C0.16413 21.4155 0.16413 21.4506 0.16413 21.4858C0.16413 21.5209 0.16413 21.556 0.16413 21.5911V21.6413C0.16413 21.6814 0.16413 21.7215 0.16413 21.7617V21.8169C0.16413 21.8921 0.16413 21.9623 0.16413 22.0326V22.3185V22.6696C0.206417 26.1521 1.61388 29.476 4.0789 31.9151C6.53426 34.37 9.85368 35.7444 13.3112 35.7377C13.8616 35.7354 14.4114 35.7002 14.9577 35.6323C15.2014 35.6022 15.4551 35.5671 15.6889 35.522C13.8784 34.4157 12.3178 32.9393 11.1076 31.1877C10.6668 30.5505 10.2759 29.8796 9.93861 29.1811C9.85902 29.0256 9.78938 28.8651 9.71974 28.7096C9.70943 28.6922 9.70108 28.6736 9.69486 28.6544C8.83486 26.7078 8.39244 24.6 8.39658 22.469C8.36744 19.4089 9.25701 16.4115 10.9484 13.8707C11.3541 13.2852 11.7996 12.7287 12.2815 12.2052C13.8383 10.5066 15.7591 9.18894 17.8975 8.35252C18.5455 8.09868 19.2104 7.89083 19.8872 7.73047C21.0286 7.46185 22.1971 7.32719 23.3692 7.32916C26.0741 7.32397 28.7305 8.05348 31.0594 9.44109L30.9947 9.3809L30.9102 9.29562H30.8803L30.8008 9.22036C30.775 9.19109 30.7467 9.16423 30.7162 9.14011L30.6167 9.04982L30.5769 9.00968H30.552L30.4127 8.88426C30.365 8.8351 30.3134 8.7898 30.2585 8.74881L30.2088 8.70368L30.1043 8.61338L30.0347 8.55319L29.9949 8.52309H29.9651L29.8407 8.42275L29.7462 8.34749L29.4428 8.10671C29.4125 8.08782 29.3842 8.06598 29.3582 8.04149L29.3234 8.01642L29.2637 7.97628L29.1841 7.91608H29.1592L29.1145 7.88598H29.0846L28.9951 7.82077H28.9702C28.8956 7.76558 28.821 7.7104 28.7414 7.66023L28.6369 7.58999H28.6121L28.4529 7.48467H28.4181L28.3086 7.40941L28.1395 7.29906L27.9654 7.18868L27.8709 7.13351H27.8311L27.7764 7.09839H27.7416L27.6172 7.02313H27.5824H27.5426L27.4282 6.95791C27.1695 6.81243 26.9059 6.67198 26.6422 6.53654L26.4681 6.45127L26.309 6.37601C26.1249 6.28571 25.9558 6.21048 25.8115 6.14024L25.6971 6.08504H25.6623L25.5927 6.05494L25.5181 6.02484H25.4832L25.0306 5.84426L24.951 5.81416L24.8714 5.78406L24.18 5.54827L24.0457 5.50816L23.9114 5.463H23.8268L23.5383 5.38275H23.4985H23.4388H23.021L22.439 5.23725L22.0908 5.16202C21.8918 5.11687 21.6978 5.07674 21.4988 5.04163L21.28 5.00148L21.0611 4.96637H20.9616H20.8323L20.2005 4.88611C19.7877 4.84598 19.3798 4.81586 18.9669 4.80081C18.7381 4.80081 18.5093 4.80081 18.2755 4.80081C17.8925 4.80081 17.5045 4.80082 17.1165 4.84095H16.9971C16.5693 4.87105 16.1465 4.91621 15.7237 4.97641L15.4999 5.01153L0.2487 20.3922L0.213876 19.7851Z" fill="#4097DB"/>
<path d="M32.1529 26.4102V26.3801C32.1553 26.3551 32.1553 26.3299 32.1529 26.3049V26.2046V26.1594C32.1552 26.1495 32.1552 26.1392 32.1529 26.1293V26.0139V25.9337C32.1529 25.8584 32.1529 25.7832 32.1778 25.7129C32.1778 25.6477 32.1778 25.5825 32.2026 25.5173V25.3618V25.3116C32.2051 25.2765 32.2051 25.2413 32.2026 25.2063V25.1762C32.2026 25.131 32.2026 25.0859 32.2026 25.0357C32.2026 24.9705 32.2026 24.9003 32.2026 24.82V24.6093V24.529C32.2026 24.4688 32.2026 24.4137 32.2026 24.3535C32.2026 24.2933 32.2026 24.1929 32.2026 24.1177V24.0726C32.2026 24.0224 32.2026 23.9622 32.2026 23.907V23.5458V23.4304C32.1574 19.9476 30.7484 16.6242 28.2829 14.185C25.8631 11.7777 22.6087 10.4156 19.2098 10.3875C18.4124 10.3859 17.6165 10.4582 16.8321 10.6032C18.6413 11.6964 20.2022 13.1611 21.4134 14.9023C23.1855 17.456 24.1323 20.4992 24.1244 23.616C24.1316 26.7328 23.1849 29.7758 21.4134 32.3297C19.6909 34.8294 17.2653 36.7514 14.4494 37.8479C12.7029 38.5214 10.8475 38.8616 8.97771 38.8512C6.2721 38.8563 3.61527 38.125 1.28748 36.7342L1.32228 36.7643L1.35711 36.8044L1.44664 36.8897L1.6108 37.0453L1.72024 37.1506L1.9192 37.3362L2.0535 37.4566H2.08335L2.21268 37.572V37.5971C2.24698 37.6282 2.28356 37.6567 2.32212 37.6823L2.42658 37.7676L2.50617 37.8329L2.80961 38.0686L2.87426 38.1188L2.94888 38.179L2.99365 38.2091H3.01852L3.13789 38.2994L3.1777 38.3245L3.23739 38.3696L3.32692 38.4348H3.36174L3.59056 38.5953L3.69503 38.6656H3.71989L3.80446 38.7208L3.894 38.781L4.03327 38.8713L4.17255 38.9616H4.29193L4.49588 39.1622L4.59537 39.2224L4.7844 39.3328L4.9386 39.4181C5.20721 39.5736 5.48079 39.7191 5.75437 39.8545L5.93345 39.9448L6.10754 40.0251L6.60497 40.2608L6.72933 40.316H6.77411L6.94323 40.3862L7.39589 40.5618L7.54512 40.617L8.23157 40.8528L8.36587 40.8979L8.56982 40.9632H8.62454L8.86828 41.0334L8.99264 41.0685C9.49006 41.2089 9.98749 41.3243 10.5148 41.4146L10.7237 41.4497L10.9326 41.4798L11.1465 41.5099C11.9919 41.6303 12.8446 41.6907 13.6983 41.6906C14.5537 41.6909 15.4081 41.6305 16.2551 41.5099L16.4541 41.4798L32.1479 26.4403C32.1509 26.436 32.153 26.4311 32.1538 26.4259C32.1547 26.4206 32.1544 26.4153 32.1529 26.4102Z" fill="#1C4B70"/>
</g>
<defs>
<clipPath id="clip0_1_936">
<rect width="206" height="41" fill="white"/>
</clipPath>
</defs>
</svg>
