<svg width="193" height="194" viewBox="0 0 193 194" fill="none" xmlns="http://www.w3.org/2000/svg">
<g id="Group" filter="url(#filter0_d_1_1131)">
<path id="Vector" d="M96.4977 0.380859C45.5312 0.380859 4.06989 41.9099 4.06989 92.9531C4.06989 101.861 5.3758 110.64 7.85943 119.094C5.42351 124.828 4.06989 131.132 4.06989 137.746C4.06989 164.09 25.4714 185.525 51.7746 185.525C58.3787 185.525 64.6697 184.173 70.3943 181.73C78.844 184.217 87.6067 185.525 96.4977 185.525C147.464 185.525 188.925 143.996 188.925 92.9531C188.925 41.9099 147.464 0.380859 96.4977 0.380859ZM10.033 137.746C10.033 114.693 28.7571 95.9393 51.7746 95.9393C74.7921 95.9393 93.5161 114.693 93.5161 137.746C93.5161 160.8 74.7921 179.553 51.7746 179.553C28.7571 179.553 10.033 160.8 10.033 137.746ZM24.9824 95.9393H28.7332C27.472 96.638 26.2406 97.3846 25.051 98.1909C25.0212 97.4234 25.0003 96.6649 24.9824 95.9393ZM93.5161 164.502C92.7887 164.473 92.0612 164.467 91.3366 164.416C92.1178 163.257 92.8364 162.054 93.5161 160.826V164.502ZM96.4977 179.553C90.2752 179.553 84.1213 178.857 78.1046 177.552C81.3515 175.39 84.2913 172.816 86.918 169.946C90.0874 170.334 93.2896 170.594 96.4977 170.594C124.253 170.594 150.058 155.586 163.848 131.424L158.672 128.462C157.858 129.886 156.996 131.275 156.096 132.631L144.08 123.887L140.574 128.719L152.56 137.439C149.11 141.786 145.198 145.689 140.905 149.091L132.208 137.098L127.386 140.61L136.09 152.608C131.507 155.654 126.575 158.148 121.411 160.077L116.841 145.991L111.17 147.836L115.75 161.949C110.49 163.427 105.037 164.287 99.4792 164.52V149.691H97.908C98.8978 145.866 99.4792 141.876 99.4792 137.746C99.4792 111.402 78.0777 89.9669 51.7746 89.9669C47.6511 89.9669 43.6677 90.5492 39.8484 91.5406V89.9669H25.0152C25.2478 84.3439 26.1333 78.8911 27.5913 73.6712L41.694 78.261L43.5395 72.5812L29.4249 67.9855C31.3629 62.7775 33.8913 57.8563 36.9265 53.2963L48.9123 62.019L52.4186 57.1874L40.4477 48.4766C43.8705 44.1586 47.7793 40.2437 52.0906 36.8155L60.7878 48.8081L65.6089 45.2963L56.9028 33.2918C61.4526 30.2518 66.3662 27.7195 71.569 25.7785L76.1576 39.9152L81.8285 38.0697L77.2459 23.942C82.4546 22.4817 87.9019 21.5918 93.5161 21.3589V36.2153H99.4792V21.3589C105.093 21.5918 110.541 22.4787 115.75 23.939L111.164 38.0667L116.835 39.9122L121.423 25.7755C126.623 27.7165 131.537 30.2488 136.09 33.2888L127.383 45.2933L132.205 48.8051L140.902 36.8125C145.213 40.2407 149.122 44.1526 152.545 48.4736L140.574 57.1844L144.08 62.016L156.066 53.2933C159.101 57.8503 161.629 62.7715 163.567 67.9825L149.453 72.5782L151.298 78.258L165.401 73.6682C166.859 78.8881 167.748 84.3409 167.977 89.9639H153.147V95.9363H167.977C167.751 101.503 166.907 106.952 165.431 112.244L151.298 107.642L149.453 113.322L163.573 117.918C162.977 119.518 162.345 121.104 161.632 122.669L167.053 125.15C171.674 115.021 174.018 104.187 174.018 92.9531C174.018 50.1429 139.244 15.3119 96.4977 15.3119C53.7513 15.3119 18.9776 50.1429 18.9776 92.9531C18.9776 95.4525 19.0939 99.6601 19.3145 102.831C16.5745 105.391 14.1117 108.239 12.0306 111.375C10.7277 105.352 10.033 99.1883 10.033 92.9531C10.033 45.2007 48.8228 6.35326 96.4977 6.35326C144.173 6.35326 182.962 45.2007 182.962 92.9531C182.962 140.705 144.173 179.553 96.4977 179.553Z" fill="#1A87C7"/>
<path id="Vector_2" d="M102.517 82.7013C100.743 81.6502 98.704 81.0082 96.4977 81.0082C89.9204 81.0082 84.5715 86.3654 84.5715 92.953C84.5715 99.5405 89.9204 104.898 96.4977 104.898C103.075 104.898 108.424 99.5405 108.424 92.953C108.424 90.7432 107.783 88.7006 106.733 86.9238L134.384 59.2298L130.168 55.0073L102.517 82.7013ZM96.4977 98.9254C93.209 98.9254 90.5346 96.2468 90.5346 92.953C90.5346 89.6592 93.209 86.9806 96.4977 86.9806C99.7863 86.9806 102.461 89.6592 102.461 92.953C102.461 96.2468 99.7863 98.9254 96.4977 98.9254Z" fill="#1A87C7"/>
<path id="Vector_3" d="M51.7745 101.912C32.0457 101.912 15.996 117.986 15.996 137.746C15.996 157.506 32.0457 173.58 51.7745 173.58C71.5034 173.58 87.553 157.506 87.553 137.746C87.553 117.986 71.5034 101.912 51.7745 101.912ZM71.5958 159.99L66.4527 152.901L61.6315 156.413L66.7806 163.508C63.1789 165.622 59.1121 167.02 54.7591 167.456V158.649H48.796V167.456C44.4399 167.02 40.3761 165.619 36.7744 163.508L41.9235 156.413L37.1024 152.901L31.9592 159.99C28.8018 157.165 26.2406 153.692 24.5054 149.76L32.8507 147.042L31.0111 141.362L22.6568 144.083C22.2066 142.04 21.9591 139.923 21.9591 137.746C21.9591 135.569 22.2066 133.452 22.6508 131.406L31.0051 134.127L32.8447 128.447L24.4994 125.73C26.2317 121.8 28.7928 118.327 31.9532 115.499L37.0964 122.588L41.9176 119.076L36.7684 111.981C40.3701 109.867 44.437 108.469 48.79 108.033V116.843H54.7531V108.036C59.1091 108.472 63.173 109.873 66.7747 111.984L61.6255 119.079L66.4467 122.591L71.5899 115.502C74.7473 118.327 77.3114 121.8 79.0437 125.733L70.6984 128.45L72.538 134.13L80.8923 131.409C81.3425 133.452 81.5899 135.569 81.5899 137.746C81.5899 139.923 81.3425 142.04 80.8982 144.086L72.544 141.365L70.7043 147.045L79.0497 149.762C77.3144 153.692 74.7533 157.165 71.5958 159.99Z" fill="#1A87C7"/>
<path id="Vector_4" d="M51.7745 131.774C51.536 131.774 51.3124 131.815 51.0828 131.842L45.2151 124.01L40.4447 127.593L46.2915 135.402C45.9844 136.122 45.8114 136.913 45.8114 137.746C45.8114 141.04 48.4859 143.718 51.7745 143.718C55.0632 143.718 57.7376 141.04 57.7376 137.746C57.7376 134.452 55.0632 131.774 51.7745 131.774Z" fill="#1A87C7"/>
</g>
<defs>
<filter id="filter0_d_1_1131" x="0.0698853" y="0.380859" width="192.856" height="193.144" filterUnits="userSpaceOnUse" color-interpolation-filters="sRGB">
<feFlood flood-opacity="0" result="BackgroundImageFix"/>
<feColorMatrix in="SourceAlpha" type="matrix" values="0 0 0 0 0 0 0 0 0 0 0 0 0 0 0 0 0 0 127 0" result="hardAlpha"/>
<feOffset dy="4"/>
<feGaussianBlur stdDeviation="2"/>
<feComposite in2="hardAlpha" operator="out"/>
<feColorMatrix type="matrix" values="0 0 0 0 0 0 0 0 0 0 0 0 0 0 0 0 0 0 0.25 0"/>
<feBlend mode="normal" in2="BackgroundImageFix" result="effect1_dropShadow_1_1131"/>
<feBlend mode="normal" in="SourceGraphic" in2="effect1_dropShadow_1_1131" result="shape"/>
</filter>
</defs>
</svg>
