<svg width="229" height="45" viewBox="0 0 229 45" fill="none" xmlns="http://www.w3.org/2000/svg">
<g clip-path="url(#clip0_1_1445)">
<path d="M64.8489 37.7983C67.9167 37.8032 70.867 36.6191 73.0803 34.4948L69.7051 31.1196C68.382 32.3389 66.6481 33.0151 64.8489 33.0137C63.9061 33.018 62.9718 32.8361 62.0996 32.4783C61.2274 32.1206 60.4344 31.594 59.7662 30.929C59.0981 30.2639 58.5679 29.4733 58.2061 28.6027C57.8444 27.7322 57.6581 26.7987 57.6581 25.856C57.6581 24.9132 57.8444 23.9797 58.2061 23.1092C58.5679 22.2386 59.0981 21.4481 59.7662 20.783C60.4344 20.1179 61.2274 19.5913 62.0996 19.2336C62.9718 18.8758 63.9061 18.6939 64.8489 18.6982C66.6546 18.6953 68.3927 19.385 69.7051 20.6253L73.0803 17.2171C70.867 15.0928 67.9167 13.9087 64.8489 13.9136C61.68 13.918 58.6421 15.1787 56.4014 17.4195C54.1606 19.6602 52.8999 22.6981 52.8955 25.867C52.9057 29.0321 54.169 32.0642 56.4092 34.3002C58.6493 36.5362 61.6838 37.794 64.8489 37.7983Z" fill="white"/>
<path d="M100.032 25.845C100.027 22.6761 98.7666 19.6382 96.5259 17.3975C94.2852 15.1567 91.2473 13.896 88.0784 13.8916C84.9114 13.8989 81.8764 15.1609 79.638 17.4014C77.3997 19.6418 76.1404 22.678 76.136 25.845C76.1404 29.0119 77.3997 32.0482 79.638 34.2886C81.8764 36.529 84.9114 37.7911 88.0784 37.7984C91.2473 37.794 94.2852 36.5332 96.5259 34.2925C98.7666 32.0517 100.027 29.0139 100.032 25.845ZM88.0784 33.0412C87.1334 33.0412 86.1976 32.8551 85.3245 32.4934C84.4514 32.1318 83.6581 31.6017 82.9899 30.9335C82.3217 30.2652 81.7916 29.472 81.4299 28.5989C81.0683 27.7258 80.8822 26.79 80.8822 25.845C80.8821 24.9017 81.0686 23.9678 81.4307 23.0969C81.7928 22.226 82.3235 21.4352 82.9922 20.77C83.661 20.1049 84.4546 19.5784 85.3274 19.221C86.2003 18.8636 87.1352 18.6822 88.0784 18.6872C89.9768 18.6872 91.7973 19.4414 93.1397 20.7837C94.482 22.126 95.2361 23.9466 95.2361 25.845C95.2412 26.7882 95.0598 27.7231 94.7024 28.5959C94.3449 29.4688 93.8185 30.2624 93.1534 30.9312C92.4882 31.5999 91.6974 32.1306 90.8265 32.4927C89.9555 32.8548 89.0216 33.0412 88.0784 33.0412Z" fill="white"/>
<path d="M128.899 37.7981V13.8914H123.762L116.786 31.3672L109.788 13.8914H104.646V37.7981H109.408V25.8447L114.204 37.7981H119.341L124.137 25.8447V37.7981H128.899Z" fill="white"/>
<path d="M138.282 28.2454H140.236C142.13 28.2382 143.943 27.4808 145.28 26.1393C146.616 24.7977 147.366 22.9813 147.366 21.0877C147.371 20.145 147.189 19.2106 146.831 18.3384C146.473 17.4662 145.947 16.6732 145.282 16.0051C144.617 15.3369 143.826 14.8067 142.955 14.4449C142.085 14.0832 141.151 13.897 140.209 13.897H133.524V37.7982H138.287L138.282 28.2454ZM138.282 18.6871H140.203C140.839 18.6871 141.449 18.9393 141.899 19.3883C142.349 19.8373 142.602 20.4465 142.604 21.0822C142.596 21.7136 142.34 22.3165 141.891 22.7599C141.441 23.2033 140.835 23.4512 140.203 23.4498H138.282V18.6871Z" fill="white"/>
<path d="M162.546 13.8916H157.47L148.814 37.7984H153.896L156.324 31.1086H163.68L166.114 37.7984H171.19L162.546 13.8916ZM158.07 26.3185L159.991 20.9282L161.946 26.3185H158.07Z" fill="white"/>
<path d="M195.075 37.7981V13.8914H190.313V29.8531L180.754 13.8914H175.171V37.7981H179.939V21.8695L189.525 37.7981H195.075Z" fill="white"/>
<path d="M204.391 13.8914H199.062L205.305 26.4119V37.7981H210.068V26.4119L216.317 13.8914H210.987L207.706 20.515L204.391 13.8914Z" fill="white"/>
<path d="M137.169 0C137.169 0.0495534 137.213 0.0936009 137.23 0.137648C137.213 0.0936009 137.191 0.0495534 137.169 0Z" fill="#FFFBF8"/>
<path d="M0.236732 21.7155V21.7596V21.8642C0.236732 21.8642 0.236732 21.9027 0.236732 21.9247V21.9798V22.0129C0.236732 22.0789 0.236738 22.145 0.209209 22.2111C0.181679 22.2771 0.209209 22.3322 0.209209 22.3928V22.4643C0.209209 22.5359 0.209199 22.613 0.181669 22.6846C0.154139 22.7561 0.181669 22.7947 0.181669 22.8497V22.9048C0.178949 22.9249 0.178949 22.9453 0.181669 22.9654C0.179161 22.9892 0.179161 23.0132 0.181669 23.037C0.179093 23.0478 0.179093 23.0591 0.181669 23.07C0.184649 23.0882 0.184649 23.1068 0.181669 23.125V23.2187C0.181669 23.2957 0.181669 23.3728 0.181669 23.4664C0.181669 23.5049 0.181669 23.5435 0.181669 23.582C0.181669 23.6206 0.181669 23.6591 0.181669 23.6977V23.7527C0.181669 23.7968 0.181669 23.8408 0.181669 23.8849V23.9454C0.181669 24.028 0.181669 24.1051 0.181669 24.1822V24.496V24.8814C0.228475 28.7036 1.78636 32.3518 4.51485 35.0289C7.23264 37.7233 10.9068 39.2318 14.7339 39.2244C15.3431 39.2219 15.9517 39.1833 16.5563 39.1088C16.8261 39.0757 17.1069 39.0372 17.3657 38.9876C15.3617 37.7734 13.6343 36.153 12.2947 34.2305C11.8068 33.5312 11.3742 32.7948 11.0008 32.0282C10.9127 31.8575 10.8357 31.6813 10.7586 31.5106C10.7472 31.4915 10.7379 31.4712 10.731 31.45C9.77912 29.3136 9.28941 27.0001 9.294 24.6612C9.26175 21.3025 10.2464 18.0127 12.1185 15.224C12.5676 14.5814 13.0607 13.9706 13.5941 13.3961C15.3174 11.5318 17.4434 10.0855 19.8103 9.1675C20.5277 8.8889 21.2636 8.66077 22.0127 8.48477C23.2762 8.18994 24.5695 8.04214 25.8669 8.0443C28.8609 8.03861 31.8013 8.83929 34.379 10.3623L34.3075 10.2962L34.2138 10.2026H34.1808L34.0927 10.12C34.0643 10.0879 34.0329 10.0584 33.9991 10.0319L33.889 9.93283L33.845 9.88877H33.8174L33.6633 9.75113C33.6104 9.69716 33.5533 9.64744 33.4926 9.60246L33.4375 9.55292L33.3219 9.45382L33.2448 9.38775L33.2008 9.35472H33.1677L33.0301 9.24459L32.9255 9.16199L32.5896 8.89771C32.5561 8.87698 32.5248 8.85301 32.496 8.82613L32.4575 8.79861L32.3914 8.75455L32.3033 8.68849H32.2758L32.2262 8.65545H32.1932L32.0941 8.58387H32.0665C31.9839 8.52331 31.9014 8.46274 31.8133 8.40768L31.6976 8.33059H31.6701L31.4939 8.21498H31.4554L31.3343 8.13238L31.1471 8.01127L30.9543 7.89012L30.8497 7.82956H30.8057L30.7451 7.79101H30.7066L30.5689 7.70841H30.5304H30.4863L30.3597 7.63683C30.0734 7.47716 29.7816 7.32301 29.4898 7.17435L29.2971 7.08076L29.1209 6.99816C28.9171 6.89905 28.7299 6.81648 28.5703 6.7394L28.4436 6.67881H28.4051L28.328 6.64577L28.2454 6.61274H28.2069L27.7058 6.41453L27.6177 6.3815L27.5297 6.34846L26.7643 6.08967L26.6157 6.04564L26.467 5.99607H26.3734L26.0541 5.90799H26.01H25.9439H25.4814L24.8372 5.7483L24.4518 5.66573C24.2316 5.61618 24.0169 5.57214 23.7966 5.53359L23.5544 5.48954L23.3121 5.45099H23.202H23.0588L22.3596 5.36291C21.9026 5.31886 21.4511 5.2858 20.9941 5.26929C20.7408 5.26929 20.4876 5.26929 20.2288 5.26929C19.8048 5.26929 19.3754 5.2693 18.9459 5.31334H18.8138C18.3403 5.34638 17.8722 5.39594 17.4042 5.46202L17.1565 5.50056L0.275277 22.3817L0.236732 21.7155Z" fill="white"/>
<path d="M35.5894 28.9869V28.9538C35.5921 28.9264 35.5921 28.8987 35.5894 28.8712V28.7611V28.7116C35.592 28.7007 35.592 28.6894 35.5894 28.6785V28.5519V28.4638C35.5894 28.3812 35.5894 28.2986 35.6169 28.2215C35.6169 28.15 35.617 28.0784 35.6445 28.0068V27.8361V27.7811C35.6472 27.7426 35.6472 27.7039 35.6445 27.6654V27.6324C35.6445 27.5828 35.6445 27.5333 35.6445 27.4782C35.6445 27.4067 35.6445 27.3296 35.6445 27.2415V27.0102V26.9221C35.6445 26.8561 35.6445 26.7955 35.6445 26.7294C35.6445 26.6634 35.6445 26.5532 35.6445 26.4706V26.4211C35.6445 26.3661 35.6445 26.3 35.6445 26.2394V25.843V25.7163C35.5944 21.8938 34.0348 18.2461 31.3058 15.5689C28.6274 12.9268 25.0252 11.4318 21.263 11.4009C20.3803 11.3992 19.4994 11.4785 18.6312 11.6377C20.6337 12.8375 22.3614 14.4452 23.7021 16.3562C25.6636 19.159 26.7116 22.4991 26.7028 25.9201C26.7109 29.3409 25.6629 32.6808 23.7021 35.4839C21.7954 38.2274 19.1106 40.337 15.9938 41.5404C14.0606 42.2796 12.0069 42.653 9.93728 42.6416C6.94249 42.6472 4.0017 41.8445 1.42511 40.3181L1.46364 40.3511L1.50218 40.3951L1.60129 40.4888L1.78299 40.6594L1.90412 40.7751L2.12436 40.9788L2.27301 41.1109H2.30605L2.44921 41.2376V41.2651C2.48716 41.2993 2.52766 41.3306 2.57034 41.3587L2.68596 41.4523L2.77405 41.5239L3.10992 41.7826L3.18149 41.8377L3.26409 41.9038L3.31364 41.9368H3.34116L3.4733 42.0359L3.51736 42.0635L3.58343 42.113L3.68253 42.1846H3.72108L3.97434 42.3608L4.08998 42.4379H4.1175L4.21111 42.4984L4.31021 42.5645L4.46438 42.6636L4.61855 42.7627H4.75068L4.97643 42.9829L5.08655 43.049L5.29578 43.1702L5.46646 43.2637C5.76378 43.4344 6.0666 43.5941 6.36943 43.7428L6.56765 43.8419L6.76034 43.93L7.31094 44.1887L7.44859 44.2493H7.49815L7.68535 44.3264L8.1864 44.5191L8.35157 44.5797L9.11139 44.8384L9.26004 44.888L9.48579 44.9596H9.54636L9.81615 45.0367L9.9538 45.0752C10.5044 45.2294 11.055 45.356 11.6386 45.4551L11.8699 45.4936L12.1011 45.5267L12.3379 45.5597C13.2736 45.6918 14.2174 45.7581 15.1624 45.7579C16.1092 45.7583 17.0549 45.692 17.9925 45.5597L18.2127 45.5267L35.5839 29.0199C35.5873 29.0152 35.5895 29.0097 35.5905 29.004C35.5914 28.9983 35.5911 28.9924 35.5894 28.9869Z" fill="white"/>
</g>
<defs>
<clipPath id="clip0_1_1445">
<rect width="228.017" height="45" fill="white"/>
</clipPath>
</defs>
</svg>
