<svg width="194" height="194" viewBox="0 0 194 194" fill="none" xmlns="http://www.w3.org/2000/svg">
<g id="Group" filter="url(#filter0_f_1_1136)">
<path id="Vector" d="M89.1032 159.635C95.1319 159.635 100.036 154.723 100.036 148.684V86.9716C100.036 80.9335 95.1319 76.0212 89.1032 76.0212H58.2949C35.2774 76.0212 16.5533 94.7746 16.5533 117.828C16.5533 140.882 35.2774 159.635 58.2949 159.635H89.1032ZM22.5164 117.828C22.5164 98.0684 38.566 81.9936 58.2949 81.9936H89.1032C91.8432 81.9936 94.0734 84.2273 94.0734 86.9716V148.687C94.0734 151.429 91.8432 153.662 89.1032 153.662H58.2949C38.566 153.662 22.5164 137.588 22.5164 117.828Z" fill="#1A87C7" fill-opacity="0.5"/>
<path id="Vector_2" d="M128.981 4.35229C122.848 4.35229 117.416 8.03727 115.138 13.7379L95.0156 64.1241C94.7025 64.1062 94.3924 64.0763 94.0734 64.0763H58.2949C28.7031 64.0763 4.62714 88.1899 4.62714 117.828C4.62714 145.417 25.495 168.193 52.2483 171.215L44.9465 189.497H189.483V4.35229H128.981ZM183.52 120.814H162.649V10.3247H183.52V120.814ZM150.723 10.3247H156.686V120.814C156.686 124.108 159.36 126.787 162.649 126.787H183.52V132.759H159.667C154.736 132.759 150.723 128.739 150.723 123.8V10.3247ZM10.5902 117.828C10.5902 91.4837 31.9917 70.0487 58.2949 70.0487H94.0734C100.651 70.0487 106 75.406 106 81.9935V108.869V126.787V153.662C106 160.25 100.651 165.607 94.0734 165.607H58.2949C31.9917 165.607 10.5902 144.172 10.5902 117.828ZM111.963 108.869C111.963 107.224 113.301 105.883 114.944 105.883C116.587 105.883 117.926 107.224 117.926 108.869V126.787C117.926 128.432 116.587 129.773 114.944 129.773C113.301 129.773 111.963 128.432 111.963 126.787V108.869ZM53.754 183.524L58.5245 171.58H94.0734C103.939 171.58 111.963 163.544 111.963 153.662V135.196C112.899 135.53 113.895 135.745 114.944 135.745C119.876 135.745 123.889 131.726 123.889 126.787V108.869C123.889 103.93 119.876 99.9107 114.944 99.9107C113.895 99.9107 112.899 100.126 111.963 100.46V81.9935C111.963 74.54 107.392 68.1405 100.913 65.444L120.678 15.9567C122.043 12.5345 125.302 10.3247 128.981 10.3247H144.76V123.8C144.76 132.033 151.447 138.731 159.667 138.731H183.52V144.704H177.557V150.676H183.52V183.524H53.754Z" fill="#1A87C7" fill-opacity="0.5"/>
<path id="Vector_3" d="M83.0204 91.8257L45.7993 129.105L50.0158 133.328L87.2369 96.0488L83.0204 91.8257Z" fill="#1A87C7" fill-opacity="0.5"/>
<path id="Vector_4" d="M42.145 132.766L38.2974 136.619L42.5139 140.842L46.3615 136.989L42.145 132.766Z" fill="#1A87C7" fill-opacity="0.5"/>
<path id="Vector_5" d="M171.594 144.704H156.686V150.676H171.594V144.704Z" fill="#1A87C7" fill-opacity="0.5"/>
</g>
<defs>
<filter id="filter0_f_1_1136" x="0.627136" y="0.352295" width="192.856" height="193.144" filterUnits="userSpaceOnUse" color-interpolation-filters="sRGB">
<feFlood flood-opacity="0" result="BackgroundImageFix"/>
<feBlend mode="normal" in="SourceGraphic" in2="BackgroundImageFix" result="shape"/>
<feGaussianBlur stdDeviation="2" result="effect1_foregroundBlur_1_1136"/>
</filter>
</defs>
</svg>
