<svg width="194" height="190" viewBox="0 0 194 190" fill="none" xmlns="http://www.w3.org/2000/svg">
<g id="Group" filter="url(#filter0_f_1_1142)">
<path id="Vector" d="M79.0511 108.362C69.1852 108.362 61.1619 116.398 61.1619 126.279V132.251H40.2911V117.32C40.2911 111.441 30.6547 109.356 22.4018 109.356C14.1489 109.356 4.51257 111.441 4.51257 117.32V147.182C4.51257 157.064 12.5359 165.1 22.4018 165.1H61.1619V168.086C61.1619 177.967 69.1852 186.003 79.0511 186.003H189.368V108.362H79.0511ZM22.4018 115.329C28.0966 115.329 32.0292 116.437 33.687 117.32C32.0292 118.204 28.0966 119.312 22.4018 119.312C16.7071 119.312 12.7744 118.204 11.1167 117.32C12.7744 116.437 16.7071 115.329 22.4018 115.329ZM22.4018 159.127C15.8245 159.127 10.4757 153.77 10.4757 147.182V123.544C13.9014 124.771 18.3201 125.285 22.4018 125.285C26.4836 125.285 30.9022 124.771 34.328 123.544V132.251C34.328 135.545 37.0024 138.224 40.2911 138.224H61.1619V159.127H22.4018ZM183.405 180.031H85.0142V174.058H79.0511V180.031C72.4738 180.031 67.125 174.673 67.125 168.086V126.279C67.125 119.691 72.4738 114.334 79.0511 114.334V168.086H85.0142V114.334H183.405V180.031Z" fill="#1A87C7" fill-opacity="0.5"/>
<path id="Vector_2" d="M27.0322 105.062L29.7007 99.7196C29.5963 99.6659 19.4203 94.3863 19.4203 78.4997C19.4203 63.297 26.1079 60.5198 26.3256 60.4272L24.4383 54.7654C23.991 54.9147 13.4572 58.6564 13.4572 78.4997C13.4572 98.0384 26.4776 104.784 27.0322 105.062Z" fill="#1A87C7" fill-opacity="0.5"/>
<path id="Vector_3" d="M26.6893 43.1819L28.3649 45.6515L30.0197 48.136C30.4371 47.8553 40.2911 41.0916 40.2911 24.7481C40.2911 7.86116 29.7573 4.14931 29.3071 4L27.4228 9.66184C27.4914 9.68573 34.328 12.3166 34.328 24.7481C34.328 37.75 27.0024 42.9669 26.6893 43.1819Z" fill="#1A87C7" fill-opacity="0.5"/>
<path id="Vector_4" d="M35.1569 90.3938L40.8099 88.5035C40.7741 88.396 37.3066 77.4576 48.5232 66.2205C59.2537 55.4761 65.9473 58.2414 66.1649 58.3339L68.8334 52.9916C68.413 52.7826 58.3056 47.9748 44.3073 61.998C30.5176 75.8181 34.9601 89.8055 35.1569 90.3938Z" fill="#1A87C7" fill-opacity="0.5"/>
<path id="Vector_5" d="M101.231 42.9938C113.154 31.052 108.324 20.9676 108.115 20.5436L102.76 23.1714C102.886 23.4492 105.751 30.0218 97.0149 38.7713C87.8437 47.9629 78.9766 46.4638 78.6009 46.3981L77.453 52.26C77.5961 52.2899 78.6576 52.487 80.3719 52.487C84.6564 52.487 92.9988 51.2447 101.231 42.9938Z" fill="#1A87C7" fill-opacity="0.5"/>
<path id="Vector_6" d="M49.5488 89.1098L54.8828 91.7825C54.9364 91.678 60.2078 81.4861 76.0696 81.4861C91.2486 81.4861 94.0215 88.1841 94.1139 88.4021L99.7669 86.5119C99.6178 86.0639 95.882 75.5137 76.0696 75.5137C56.5614 75.5137 49.8261 88.5544 49.5488 89.1098Z" fill="#1A87C7" fill-opacity="0.5"/>
<path id="Vector_7" d="M129.737 102.389C146.598 102.389 150.304 91.839 150.453 91.3881L144.8 89.4979C144.776 89.5695 142.149 96.4169 129.737 96.4169C116.756 96.4169 111.547 89.0798 111.332 88.7662L106.386 92.0988C106.666 92.5199 113.419 102.389 129.737 102.389Z" fill="#1A87C7" fill-opacity="0.5"/>
<path id="Vector_8" d="M96.9404 168.086H90.9773V174.058H96.9404V168.086Z" fill="#1A87C7" fill-opacity="0.5"/>
<path id="Vector_9" d="M177.442 168.086H102.903V174.058H177.442V168.086Z" fill="#1A87C7" fill-opacity="0.5"/>
</g>
<defs>
<filter id="filter0_f_1_1142" x="0.512573" y="0" width="192.856" height="190.003" filterUnits="userSpaceOnUse" color-interpolation-filters="sRGB">
<feFlood flood-opacity="0" result="BackgroundImageFix"/>
<feBlend mode="normal" in="SourceGraphic" in2="BackgroundImageFix" result="shape"/>
<feGaussianBlur stdDeviation="2" result="effect1_foregroundBlur_1_1142"/>
</filter>
</defs>
</svg>
