<svg width="122" height="165" viewBox="0 0 122 165" fill="none" xmlns="http://www.w3.org/2000/svg">
<path d="M4.1 18C3.92667 18 3.78667 17.9533 3.68 17.86C3.58667 17.7667 3.52 17.6333 3.48 17.46L0.9 4.62C0.886667 4.56667 0.88 4.52 0.88 4.48C0.88 4.44 0.88 4.41333 0.88 4.4C0.88 4.29333 0.92 4.2 1 4.12C1.08 4.04 1.17333 4 1.28 4H2.32C2.6 4 2.76 4.11333 2.8 4.34L4.84 14.66L7 7.58C7.04 7.46 7.10667 7.35333 7.2 7.26C7.30667 7.15333 7.45333 7.1 7.64 7.1H8.38C8.58 7.1 8.72667 7.15333 8.82 7.26C8.91333 7.35333 8.97333 7.46 9 7.58L11.18 14.66L13.2 4.34C13.24 4.11333 13.4067 4 13.7 4H14.74C14.8467 4 14.94 4.04 15.02 4.12C15.1 4.2 15.14 4.29333 15.14 4.4C15.14 4.41333 15.1333 4.44 15.12 4.48C15.12 4.52 15.12 4.56667 15.12 4.62L12.54 17.46C12.5 17.6333 12.4267 17.7667 12.32 17.86C12.2267 17.9533 12.0933 18 11.92 18H11.14C10.9533 18 10.8067 17.9533 10.7 17.86C10.5933 17.7667 10.52 17.6467 10.48 17.5L8 9.88L5.54 17.5C5.48667 17.6467 5.40667 17.7667 5.3 17.86C5.20667 17.9533 5.06667 18 4.88 18H4.1ZM17.9756 18C17.8423 18 17.729 17.96 17.6356 17.88C17.5556 17.7867 17.5156 17.6733 17.5156 17.54V4.26C17.5156 4.12667 17.5556 4.02 17.6356 3.94C17.729 3.84667 17.8423 3.8 17.9756 3.8H18.9756C19.1223 3.8 19.2356 3.84667 19.3156 3.94C19.3956 4.02 19.4356 4.12667 19.4356 4.26V8.92C19.7956 8.46667 20.2356 8.1 20.7556 7.82C21.2756 7.54 21.9356 7.4 22.7356 7.4C23.6023 7.4 24.3356 7.59333 24.9356 7.98C25.549 8.35333 26.009 8.88 26.3156 9.56C26.6356 10.2267 26.7956 11.0067 26.7956 11.9V17.54C26.7956 17.6733 26.7556 17.7867 26.6756 17.88C26.5956 17.96 26.4823 18 26.3356 18H25.3356C25.2023 18 25.089 17.96 24.9956 17.88C24.9156 17.7867 24.8756 17.6733 24.8756 17.54V12C24.8756 11.0667 24.649 10.34 24.1956 9.82C23.7423 9.28667 23.0756 9.02 22.1956 9.02C21.369 9.02 20.7023 9.28667 20.1956 9.82C19.689 10.34 19.4356 11.0667 19.4356 12V17.54C19.4356 17.6733 19.3956 17.7867 19.3156 17.88C19.2356 17.96 19.1223 18 18.9756 18H17.9756ZM33.9431 18.2C32.9298 18.2 32.0831 18.0067 31.4031 17.62C30.7231 17.2333 30.2031 16.7 29.8431 16.02C29.4831 15.3267 29.2831 14.54 29.2431 13.66C29.2298 13.4333 29.2231 13.1467 29.2231 12.8C29.2231 12.44 29.2298 12.1533 29.2431 11.94C29.2831 11.0467 29.4831 10.26 29.8431 9.58C30.2165 8.9 30.7431 8.36667 31.4231 7.98C32.1031 7.59333 32.9431 7.4 33.9431 7.4C34.9431 7.4 35.7831 7.59333 36.4631 7.98C37.1431 8.36667 37.6631 8.9 38.0231 9.58C38.3965 10.26 38.6031 11.0467 38.6431 11.94C38.6565 12.1533 38.6631 12.44 38.6631 12.8C38.6631 13.1467 38.6565 13.4333 38.6431 13.66C38.6031 14.54 38.4031 15.3267 38.0431 16.02C37.6831 16.7 37.1631 17.2333 36.4831 17.62C35.8031 18.0067 34.9565 18.2 33.9431 18.2ZM33.9431 16.66C34.7698 16.66 35.4298 16.4 35.9231 15.88C36.4165 15.3467 36.6831 14.5733 36.7231 13.56C36.7365 13.36 36.7431 13.1067 36.7431 12.8C36.7431 12.4933 36.7365 12.24 36.7231 12.04C36.6831 11.0267 36.4165 10.26 35.9231 9.74C35.4298 9.20667 34.7698 8.94 33.9431 8.94C33.1165 8.94 32.4498 9.20667 31.9431 9.74C31.4498 10.26 31.1898 11.0267 31.1631 12.04C31.1498 12.24 31.1431 12.4933 31.1431 12.8C31.1431 13.1067 31.1498 13.36 31.1631 13.56C31.1898 14.5733 31.4498 15.3467 31.9431 15.88C32.4498 16.4 33.1165 16.66 33.9431 16.66ZM48.3773 18C48.204 18 48.064 17.9533 47.9573 17.86C47.864 17.7667 47.7973 17.6333 47.7573 17.46L45.1773 4.62C45.164 4.56667 45.1573 4.52 45.1573 4.48C45.1573 4.44 45.1573 4.41333 45.1573 4.4C45.1573 4.29333 45.1973 4.2 45.2773 4.12C45.3573 4.04 45.4507 4 45.5573 4H46.5973C46.8773 4 47.0373 4.11333 47.0773 4.34L49.1173 14.66L51.2773 7.58C51.3173 7.46 51.384 7.35333 51.4773 7.26C51.584 7.15333 51.7307 7.1 51.9173 7.1H52.6573C52.8573 7.1 53.004 7.15333 53.0973 7.26C53.1907 7.35333 53.2507 7.46 53.2773 7.58L55.4573 14.66L57.4773 4.34C57.5173 4.11333 57.684 4 57.9773 4H59.0173C59.124 4 59.2173 4.04 59.2973 4.12C59.3773 4.2 59.4173 4.29333 59.4173 4.4C59.4173 4.41333 59.4107 4.44 59.3973 4.48C59.3973 4.52 59.3973 4.56667 59.3973 4.62L56.8173 17.46C56.7773 17.6333 56.704 17.7667 56.5973 17.86C56.504 17.9533 56.3707 18 56.1973 18H55.4173C55.2307 18 55.084 17.9533 54.9773 17.86C54.8707 17.7667 54.7973 17.6467 54.7573 17.5L52.2773 9.88L49.8173 17.5C49.764 17.6467 49.684 17.7667 49.5773 17.86C49.484 17.9533 49.344 18 49.1573 18H48.3773ZM65.4833 18.2C64.1099 18.2 63.0166 17.78 62.2033 16.94C61.3899 16.0867 60.9433 14.9267 60.8633 13.46C60.8499 13.2867 60.8433 13.0667 60.8433 12.8C60.8433 12.52 60.8499 12.2933 60.8633 12.12C60.9166 11.1733 61.1366 10.3467 61.5233 9.64C61.9099 8.92 62.4366 8.36667 63.1033 7.98C63.7833 7.59333 64.5766 7.4 65.4833 7.4C66.4966 7.4 67.3433 7.61333 68.0233 8.04C68.7166 8.46667 69.2433 9.07333 69.6033 9.86C69.9633 10.6467 70.1433 11.5667 70.1433 12.62V12.96C70.1433 13.1067 70.0966 13.22 70.0033 13.3C69.9233 13.38 69.8166 13.42 69.6833 13.42H62.7633C62.7633 13.4333 62.7633 13.46 62.7633 13.5C62.7633 13.54 62.7633 13.5733 62.7633 13.6C62.7899 14.1467 62.9099 14.66 63.1233 15.14C63.3366 15.6067 63.6433 15.9867 64.0433 16.28C64.4433 16.5733 64.9233 16.72 65.4833 16.72C65.9633 16.72 66.3633 16.6467 66.6833 16.5C67.0033 16.3533 67.2633 16.1933 67.4633 16.02C67.6633 15.8333 67.7966 15.6933 67.8633 15.6C67.9833 15.4267 68.0766 15.3267 68.1433 15.3C68.2099 15.26 68.3166 15.24 68.4633 15.24H69.4233C69.5566 15.24 69.6633 15.28 69.7433 15.36C69.8366 15.4267 69.8766 15.5267 69.8633 15.66C69.8499 15.86 69.7433 16.1067 69.5433 16.4C69.3433 16.68 69.0566 16.96 68.6833 17.24C68.3099 17.52 67.8566 17.7533 67.3233 17.94C66.7899 18.1133 66.1766 18.2 65.4833 18.2ZM62.7633 12.04H68.2433V11.98C68.2433 11.38 68.1299 10.8467 67.9033 10.38C67.6899 9.91333 67.3766 9.54667 66.9633 9.28C66.5499 9 66.0566 8.86 65.4833 8.86C64.9099 8.86 64.4166 9 64.0033 9.28C63.6033 9.54667 63.2966 9.91333 63.0833 10.38C62.8699 10.8467 62.7633 11.38 62.7633 11.98V12.04ZM76.2297 18C76.123 18 76.0297 17.96 75.9497 17.88C75.8697 17.8 75.8297 17.7067 75.8297 17.6C75.8297 17.5333 75.8364 17.46 75.8497 17.38L80.8097 4.44C80.863 4.30667 80.9364 4.2 81.0297 4.12C81.123 4.04 81.263 4 81.4497 4H82.8097C82.983 4 83.1164 4.04 83.2097 4.12C83.3164 4.2 83.3964 4.30667 83.4497 4.44L88.3897 17.38C88.4164 17.46 88.4297 17.5333 88.4297 17.6C88.4297 17.7067 88.3897 17.8 88.3097 17.88C88.2297 17.96 88.1364 18 88.0297 18H87.0097C86.8497 18 86.7297 17.96 86.6497 17.88C86.583 17.8 86.5364 17.7267 86.5097 17.66L85.4097 14.82H78.8497L77.7497 17.66C77.7364 17.7267 77.6897 17.8 77.6097 17.88C77.5297 17.96 77.4097 18 77.2497 18H76.2297ZM79.4297 13.1H84.8297L82.1297 6L79.4297 13.1ZM90.7681 18C90.6348 18 90.5215 17.96 90.4281 17.88C90.3481 17.7867 90.3081 17.6733 90.3081 17.54V8.08C90.3081 7.94667 90.3481 7.83333 90.4281 7.74C90.5215 7.64667 90.6348 7.6 90.7681 7.6H91.6881C91.8215 7.6 91.9348 7.64667 92.0281 7.74C92.1215 7.83333 92.1681 7.94667 92.1681 8.08V8.96C92.4348 8.50667 92.8015 8.16667 93.2681 7.94C93.7348 7.71333 94.2948 7.6 94.9481 7.6H95.7481C95.8815 7.6 95.9881 7.64667 96.0681 7.74C96.1481 7.82 96.1881 7.92667 96.1881 8.06V8.88C96.1881 9.01333 96.1481 9.12 96.0681 9.2C95.9881 9.28 95.8815 9.32 95.7481 9.32H94.5481C93.8281 9.32 93.2615 9.53333 92.8481 9.96C92.4348 10.3733 92.2281 10.94 92.2281 11.66V17.54C92.2281 17.6733 92.1815 17.7867 92.0881 17.88C91.9948 17.96 91.8815 18 91.7481 18H90.7681ZM101.85 18.2C100.477 18.2 99.3838 17.78 98.5705 16.94C97.7571 16.0867 97.3105 14.9267 97.2305 13.46C97.2171 13.2867 97.2105 13.0667 97.2105 12.8C97.2105 12.52 97.2171 12.2933 97.2305 12.12C97.2838 11.1733 97.5038 10.3467 97.8905 9.64C98.2771 8.92 98.8038 8.36667 99.4705 7.98C100.15 7.59333 100.944 7.4 101.85 7.4C102.864 7.4 103.71 7.61333 104.39 8.04C105.084 8.46667 105.61 9.07333 105.97 9.86C106.33 10.6467 106.51 11.5667 106.51 12.62V12.96C106.51 13.1067 106.464 13.22 106.37 13.3C106.29 13.38 106.184 13.42 106.05 13.42H99.1305C99.1305 13.4333 99.1305 13.46 99.1305 13.5C99.1305 13.54 99.1305 13.5733 99.1305 13.6C99.1571 14.1467 99.2771 14.66 99.4905 15.14C99.7038 15.6067 100.01 15.9867 100.41 16.28C100.81 16.5733 101.29 16.72 101.85 16.72C102.33 16.72 102.73 16.6467 103.05 16.5C103.37 16.3533 103.63 16.1933 103.83 16.02C104.03 15.8333 104.164 15.6933 104.23 15.6C104.35 15.4267 104.444 15.3267 104.51 15.3C104.577 15.26 104.684 15.24 104.83 15.24H105.79C105.924 15.24 106.03 15.28 106.11 15.36C106.204 15.4267 106.244 15.5267 106.23 15.66C106.217 15.86 106.11 16.1067 105.91 16.4C105.71 16.68 105.424 16.96 105.05 17.24C104.677 17.52 104.224 17.7533 103.69 17.94C103.157 18.1133 102.544 18.2 101.85 18.2ZM99.1305 12.04H104.61V11.98C104.61 11.38 104.497 10.8467 104.27 10.38C104.057 9.91333 103.744 9.54667 103.33 9.28C102.917 9 102.424 8.86 101.85 8.86C101.277 8.86 100.784 9 100.37 9.28C99.9705 9.54667 99.6638 9.91333 99.4505 10.38C99.2371 10.8467 99.1305 11.38 99.1305 11.98V12.04Z" fill="white"/>
<path d="M6.76 73.0779C5.62667 73.0779 4.65333 72.8846 3.84 72.4979C3.02667 72.0979 2.4 71.4913 1.96 70.6779C1.52 69.8513 1.27333 68.8179 1.22 67.5779C1.20667 66.9913 1.2 66.4313 1.2 65.8979C1.2 65.3513 1.20667 64.7846 1.22 64.1979C1.27333 62.9713 1.52667 61.9513 1.98 61.1379C2.44667 60.3113 3.08667 59.6979 3.9 59.2979C4.72667 58.8846 5.68 58.6779 6.76 58.6779C7.85333 58.6779 8.80667 58.8846 9.62 59.2979C10.4467 59.6979 11.0933 60.3113 11.56 61.1379C12.0267 61.9513 12.28 62.9713 12.32 64.1979C12.3467 64.7846 12.36 65.3513 12.36 65.8979C12.36 66.4313 12.3467 66.9913 12.32 67.5779C12.28 68.8179 12.0333 69.8513 11.58 70.6779C11.14 71.4913 10.5133 72.0979 9.7 72.4979C8.88667 72.8846 7.90667 73.0779 6.76 73.0779ZM6.76 71.3779C7.78667 71.3779 8.62 71.0713 9.26 70.4579C9.91333 69.8446 10.2667 68.8513 10.32 67.4779C10.3467 66.8779 10.36 66.3446 10.36 65.8779C10.36 65.3979 10.3467 64.8646 10.32 64.2779C10.2933 63.3579 10.12 62.6113 9.8 62.0379C9.49333 61.4646 9.08 61.0446 8.56 60.7779C8.04 60.5113 7.44 60.3779 6.76 60.3779C6.10667 60.3779 5.52 60.5113 5 60.7779C4.48 61.0446 4.06 61.4646 3.74 62.0379C3.43333 62.6113 3.26 63.3579 3.22 64.2779C3.20667 64.8646 3.2 65.3979 3.2 65.8779C3.2 66.3446 3.20667 66.8779 3.22 67.4779C3.27333 68.8513 3.62667 69.8446 4.28 70.4579C4.93333 71.0713 5.76 71.3779 6.76 71.3779ZM18.8952 73.0779C18.0418 73.0779 17.3152 72.8913 16.7152 72.5179C16.1285 72.1313 15.6818 71.5979 15.3752 70.9179C15.0685 70.2379 14.9152 69.4579 14.9152 68.5779V62.9379C14.9152 62.8046 14.9552 62.6979 15.0352 62.6179C15.1285 62.5246 15.2418 62.4779 15.3752 62.4779H16.3752C16.5085 62.4779 16.6152 62.5246 16.6952 62.6179C16.7885 62.6979 16.8352 62.8046 16.8352 62.9379V68.4779C16.8352 70.4646 17.7018 71.4579 19.4352 71.4579C20.2618 71.4579 20.9218 71.1979 21.4152 70.6779C21.9218 70.1446 22.1752 69.4113 22.1752 68.4779V62.9379C22.1752 62.8046 22.2152 62.6979 22.2952 62.6179C22.3885 62.5246 22.5018 62.4779 22.6352 62.4779H23.6152C23.7618 62.4779 23.8752 62.5246 23.9552 62.6179C24.0352 62.6979 24.0752 62.8046 24.0752 62.9379V72.4179C24.0752 72.5513 24.0352 72.6646 23.9552 72.7579C23.8752 72.8379 23.7618 72.8779 23.6152 72.8779H22.6952C22.5618 72.8779 22.4485 72.8379 22.3552 72.7579C22.2752 72.6646 22.2352 72.5513 22.2352 72.4179V71.5379C21.8752 72.0046 21.4352 72.3779 20.9152 72.6579C20.4085 72.9379 19.7352 73.0779 18.8952 73.0779ZM27.5064 72.8779C27.3731 72.8779 27.2597 72.8379 27.1664 72.7579C27.0864 72.6646 27.0464 72.5513 27.0464 72.4179V62.9579C27.0464 62.8246 27.0864 62.7113 27.1664 62.6179C27.2597 62.5246 27.3731 62.4779 27.5064 62.4779H28.4264C28.5597 62.4779 28.6731 62.5246 28.7664 62.6179C28.8597 62.7113 28.9064 62.8246 28.9064 62.9579V63.8379C29.1731 63.3846 29.5397 63.0446 30.0064 62.8179C30.4731 62.5913 31.0331 62.4779 31.6864 62.4779H32.4864C32.6197 62.4779 32.7264 62.5246 32.8064 62.6179C32.8864 62.6979 32.9264 62.8046 32.9264 62.9379V63.7579C32.9264 63.8913 32.8864 63.9979 32.8064 64.0779C32.7264 64.1579 32.6197 64.1979 32.4864 64.1979H31.2864C30.5664 64.1979 29.9997 64.4113 29.5864 64.8379C29.1731 65.2513 28.9664 65.8179 28.9664 66.5379V72.4179C28.9664 72.5513 28.9197 72.6646 28.8264 72.7579C28.7331 72.8379 28.6197 72.8779 28.4864 72.8779H27.5064ZM42.9508 72.8779C42.7508 72.8779 42.5908 72.8313 42.4708 72.7379C42.3641 72.6446 42.2774 72.5179 42.2108 72.3579L37.7508 59.4979C37.7241 59.4179 37.7108 59.3446 37.7108 59.2779C37.7108 59.1713 37.7508 59.0779 37.8308 58.9979C37.9108 58.9179 38.0041 58.8779 38.1108 58.8779H39.1508C39.3108 58.8779 39.4308 58.9246 39.5108 59.0179C39.6041 59.0979 39.6574 59.1713 39.6708 59.2379L43.5908 70.5779L47.5108 59.2379C47.5374 59.1713 47.5908 59.0979 47.6708 59.0179C47.7508 58.9246 47.8708 58.8779 48.0308 58.8779H49.0708C49.1774 58.8779 49.2708 58.9179 49.3508 58.9979C49.4441 59.0779 49.4908 59.1713 49.4908 59.2779C49.4908 59.3446 49.4774 59.4179 49.4508 59.4979L44.9708 72.3579C44.9174 72.5179 44.8308 72.6446 44.7108 72.7379C44.6041 72.8313 44.4508 72.8779 44.2508 72.8779H42.9508ZM53.4034 73.0779C52.7368 73.0779 52.1301 72.9446 51.5834 72.6779C51.0368 72.4113 50.5968 72.0513 50.2634 71.5979C49.9301 71.1446 49.7634 70.6313 49.7634 70.0579C49.7634 69.1379 50.1368 68.4046 50.8834 67.8579C51.6301 67.3113 52.6034 66.9513 53.8034 66.7779L56.7834 66.3579V65.7779C56.7834 65.1379 56.5968 64.6379 56.2234 64.2779C55.8634 63.9179 55.2701 63.7379 54.4434 63.7379C53.8434 63.7379 53.3568 63.8579 52.9834 64.0979C52.6234 64.3379 52.3701 64.6446 52.2234 65.0179C52.1434 65.2179 52.0034 65.3179 51.8034 65.3179H50.9034C50.7568 65.3179 50.6434 65.2779 50.5634 65.1979C50.4968 65.1046 50.4634 64.9979 50.4634 64.8779C50.4634 64.6779 50.5368 64.4313 50.6834 64.1379C50.8434 63.8446 51.0834 63.5579 51.4034 63.2779C51.7234 62.9979 52.1301 62.7646 52.6234 62.5779C53.1301 62.3779 53.7434 62.2779 54.4634 62.2779C55.2634 62.2779 55.9368 62.3846 56.4834 62.5979C57.0301 62.7979 57.4568 63.0713 57.7634 63.4179C58.0834 63.7646 58.3101 64.1579 58.4434 64.5979C58.5901 65.0379 58.6634 65.4846 58.6634 65.9379V72.4179C58.6634 72.5513 58.6168 72.6646 58.5234 72.7579C58.4434 72.8379 58.3368 72.8779 58.2034 72.8779H57.2834C57.1368 72.8779 57.0234 72.8379 56.9434 72.7579C56.8634 72.6646 56.8234 72.5513 56.8234 72.4179V71.5579C56.6501 71.7979 56.4168 72.0379 56.1234 72.2779C55.8301 72.5046 55.4634 72.6979 55.0234 72.8579C54.5834 73.0046 54.0434 73.0779 53.4034 73.0779ZM53.8234 71.5779C54.3701 71.5779 54.8701 71.4646 55.3234 71.2379C55.7768 70.9979 56.1301 70.6313 56.3834 70.1379C56.6501 69.6446 56.7834 69.0246 56.7834 68.2779V67.7179L54.4634 68.0579C53.5168 68.1913 52.8034 68.4179 52.3234 68.7379C51.8434 69.0446 51.6034 69.4379 51.6034 69.9179C51.6034 70.2913 51.7101 70.6046 51.9234 70.8579C52.1501 71.0979 52.4301 71.2779 52.7634 71.3979C53.1101 71.5179 53.4634 71.5779 53.8234 71.5779ZM62.0186 72.8779C61.8853 72.8779 61.7719 72.8379 61.6786 72.7579C61.5986 72.6646 61.5586 72.5513 61.5586 72.4179V59.1379C61.5586 59.0046 61.5986 58.8979 61.6786 58.8179C61.7719 58.7246 61.8853 58.6779 62.0186 58.6779H62.9586C63.1053 58.6779 63.2186 58.7246 63.2986 58.8179C63.3786 58.8979 63.4186 59.0046 63.4186 59.1379V72.4179C63.4186 72.5513 63.3786 72.6646 63.2986 72.7579C63.2186 72.8379 63.1053 72.8779 62.9586 72.8779H62.0186ZM70.2819 73.0779C69.4285 73.0779 68.7019 72.8913 68.1019 72.5179C67.5152 72.1313 67.0685 71.5979 66.7619 70.9179C66.4552 70.2379 66.3019 69.4579 66.3019 68.5779V62.9379C66.3019 62.8046 66.3419 62.6979 66.4219 62.6179C66.5152 62.5246 66.6285 62.4779 66.7619 62.4779H67.7619C67.8952 62.4779 68.0019 62.5246 68.0819 62.6179C68.1752 62.6979 68.2219 62.8046 68.2219 62.9379V68.4779C68.2219 70.4646 69.0885 71.4579 70.8219 71.4579C71.6485 71.4579 72.3085 71.1979 72.8019 70.6779C73.3085 70.1446 73.5619 69.4113 73.5619 68.4779V62.9379C73.5619 62.8046 73.6019 62.6979 73.6819 62.6179C73.7752 62.5246 73.8885 62.4779 74.0219 62.4779H75.0019C75.1485 62.4779 75.2619 62.5246 75.3419 62.6179C75.4219 62.6979 75.4619 62.8046 75.4619 62.9379V72.4179C75.4619 72.5513 75.4219 72.6646 75.3419 72.7579C75.2619 72.8379 75.1485 72.8779 75.0019 72.8779H74.0819C73.9485 72.8779 73.8352 72.8379 73.7419 72.7579C73.6619 72.6646 73.6219 72.5513 73.6219 72.4179V71.5379C73.2619 72.0046 72.8219 72.3779 72.3019 72.6579C71.7952 72.9379 71.1219 73.0779 70.2819 73.0779ZM82.5731 73.0779C81.1998 73.0779 80.1065 72.6579 79.2931 71.8179C78.4798 70.9646 78.0331 69.8046 77.9531 68.3379C77.9398 68.1646 77.9331 67.9446 77.9331 67.6779C77.9331 67.3979 77.9398 67.1713 77.9531 66.9979C78.0065 66.0513 78.2265 65.2246 78.6131 64.5179C78.9998 63.7979 79.5265 63.2446 80.1931 62.8579C80.8731 62.4713 81.6665 62.2779 82.5731 62.2779C83.5865 62.2779 84.4331 62.4913 85.1131 62.9179C85.8065 63.3446 86.3331 63.9513 86.6931 64.7379C87.0531 65.5246 87.2331 66.4446 87.2331 67.4979V67.8379C87.2331 67.9846 87.1865 68.0979 87.0931 68.1779C87.0131 68.2579 86.9065 68.2979 86.7731 68.2979H79.8531C79.8531 68.3113 79.8531 68.3379 79.8531 68.3779C79.8531 68.4179 79.8531 68.4513 79.8531 68.4779C79.8798 69.0246 79.9998 69.5379 80.2131 70.0179C80.4265 70.4846 80.7331 70.8646 81.1331 71.1579C81.5331 71.4513 82.0131 71.5979 82.5731 71.5979C83.0531 71.5979 83.4531 71.5246 83.7731 71.3779C84.0931 71.2313 84.3531 71.0713 84.5531 70.8979C84.7531 70.7113 84.8865 70.5713 84.9531 70.4779C85.0731 70.3046 85.1665 70.2046 85.2331 70.1779C85.2998 70.1379 85.4065 70.1179 85.5531 70.1179H86.5131C86.6465 70.1179 86.7531 70.1579 86.8331 70.2379C86.9265 70.3046 86.9665 70.4046 86.9531 70.5379C86.9398 70.7379 86.8331 70.9846 86.6331 71.2779C86.4331 71.5579 86.1465 71.8379 85.7731 72.1179C85.3998 72.3979 84.9465 72.6313 84.4131 72.8179C83.8798 72.9913 83.2665 73.0779 82.5731 73.0779ZM79.8531 66.9179H85.3331V66.8579C85.3331 66.2579 85.2198 65.7246 84.9931 65.2579C84.7798 64.7913 84.4665 64.4246 84.0531 64.1579C83.6398 63.8779 83.1465 63.7379 82.5731 63.7379C81.9998 63.7379 81.5065 63.8779 81.0931 64.1579C80.6931 64.4246 80.3865 64.7913 80.1731 65.2579C79.9598 65.7246 79.8531 66.2579 79.8531 66.8579V66.9179ZM93.2245 73.0779C92.4779 73.0779 91.8379 72.9846 91.3045 72.7979C90.7712 72.6113 90.3379 72.3846 90.0045 72.1179C89.6712 71.8513 89.4179 71.5846 89.2445 71.3179C89.0845 71.0513 88.9979 70.8379 88.9845 70.6779C88.9712 70.5313 89.0179 70.4179 89.1245 70.3379C89.2312 70.2579 89.3379 70.2179 89.4445 70.2179H90.3245C90.4045 70.2179 90.4645 70.2313 90.5045 70.2579C90.5579 70.2713 90.6245 70.3246 90.7045 70.4179C90.8779 70.6046 91.0712 70.7913 91.2845 70.9779C91.4979 71.1646 91.7579 71.3179 92.0645 71.4379C92.3845 71.5579 92.7779 71.6179 93.2445 71.6179C93.9245 71.6179 94.4845 71.4913 94.9245 71.2379C95.3645 70.9713 95.5845 70.5846 95.5845 70.0779C95.5845 69.7446 95.4912 69.4779 95.3045 69.2779C95.1312 69.0779 94.8112 68.8979 94.3445 68.7379C93.8912 68.5779 93.2645 68.4113 92.4645 68.2379C91.6645 68.0513 91.0312 67.8246 90.5645 67.5579C90.0979 67.2779 89.7645 66.9513 89.5645 66.5779C89.3645 66.1913 89.2645 65.7579 89.2645 65.2779C89.2645 64.7846 89.4112 64.3113 89.7045 63.8579C89.9979 63.3913 90.4245 63.0113 90.9845 62.7179C91.5579 62.4246 92.2712 62.2779 93.1245 62.2779C93.8179 62.2779 94.4112 62.3646 94.9045 62.5379C95.3979 62.7113 95.8045 62.9313 96.1245 63.1979C96.4445 63.4513 96.6845 63.7046 96.8445 63.9579C97.0045 64.2113 97.0912 64.4246 97.1045 64.5979C97.1179 64.7313 97.0779 64.8446 96.9845 64.9379C96.8912 65.0179 96.7845 65.0579 96.6645 65.0579H95.8245C95.7312 65.0579 95.6512 65.0379 95.5845 64.9979C95.5312 64.9579 95.4779 64.9113 95.4245 64.8579C95.2912 64.6846 95.1312 64.5113 94.9445 64.3379C94.7712 64.1646 94.5379 64.0246 94.2445 63.9179C93.9645 63.7979 93.5912 63.7379 93.1245 63.7379C92.4579 63.7379 91.9579 63.8779 91.6245 64.1579C91.2912 64.4379 91.1245 64.7913 91.1245 65.2179C91.1245 65.4713 91.1979 65.6979 91.3445 65.8979C91.4912 66.0979 91.7712 66.2779 92.1845 66.4379C92.5979 66.5979 93.2112 66.7713 94.0245 66.9579C94.9045 67.1313 95.5979 67.3646 96.1045 67.6579C96.6112 67.9513 96.9712 68.2913 97.1845 68.6779C97.3979 69.0646 97.5045 69.5113 97.5045 70.0179C97.5045 70.5779 97.3379 71.0913 97.0045 71.5579C96.6845 72.0246 96.2045 72.3979 95.5645 72.6779C94.9379 72.9446 94.1579 73.0779 93.2245 73.0779Z" fill="white"/>
<path d="M5.26 127.755C5.12667 127.755 5.01333 127.715 4.92 127.635C4.84 127.542 4.8 127.429 4.8 127.295V115.535H0.96C0.826667 115.535 0.713333 115.495 0.62 115.415C0.54 115.322 0.5 115.209 0.5 115.075V114.235C0.5 114.089 0.54 113.975 0.62 113.895C0.713333 113.802 0.826667 113.755 0.96 113.755H10.6C10.7467 113.755 10.86 113.802 10.94 113.895C11.0333 113.975 11.08 114.089 11.08 114.235V115.075C11.08 115.209 11.0333 115.322 10.94 115.415C10.86 115.495 10.7467 115.535 10.6 115.535H6.78V127.295C6.78 127.429 6.73333 127.542 6.64 127.635C6.56 127.715 6.44667 127.755 6.3 127.755H5.26ZM13.1319 127.755C12.9985 127.755 12.8852 127.715 12.7919 127.635C12.7119 127.542 12.6719 127.429 12.6719 127.295V114.015C12.6719 113.882 12.7119 113.775 12.7919 113.695C12.8852 113.602 12.9985 113.555 13.1319 113.555H14.1319C14.2785 113.555 14.3919 113.602 14.4719 113.695C14.5519 113.775 14.5919 113.882 14.5919 114.015V118.675C14.9519 118.222 15.3919 117.855 15.9119 117.575C16.4319 117.295 17.0919 117.155 17.8919 117.155C18.7585 117.155 19.4919 117.349 20.0919 117.735C20.7052 118.109 21.1652 118.635 21.4719 119.315C21.7919 119.982 21.9519 120.762 21.9519 121.655V127.295C21.9519 127.429 21.9119 127.542 21.8319 127.635C21.7519 127.715 21.6385 127.755 21.4919 127.755H20.4919C20.3585 127.755 20.2452 127.715 20.1519 127.635C20.0719 127.542 20.0319 127.429 20.0319 127.295V121.755C20.0319 120.822 19.8052 120.095 19.3519 119.575C18.8985 119.042 18.2319 118.775 17.3519 118.775C16.5252 118.775 15.8585 119.042 15.3519 119.575C14.8452 120.095 14.5919 120.822 14.5919 121.755V127.295C14.5919 127.429 14.5519 127.542 14.4719 127.635C14.3919 127.715 14.2785 127.755 14.1319 127.755H13.1319ZM28.9794 127.955C27.606 127.955 26.5127 127.535 25.6994 126.695C24.886 125.842 24.4394 124.682 24.3594 123.215C24.346 123.042 24.3394 122.822 24.3394 122.555C24.3394 122.275 24.346 122.049 24.3594 121.875C24.4127 120.929 24.6327 120.102 25.0194 119.395C25.406 118.675 25.9327 118.122 26.5994 117.735C27.2794 117.349 28.0727 117.155 28.9794 117.155C29.9927 117.155 30.8394 117.369 31.5194 117.795C32.2127 118.222 32.7394 118.829 33.0994 119.615C33.4594 120.402 33.6394 121.322 33.6394 122.375V122.715C33.6394 122.862 33.5927 122.975 33.4994 123.055C33.4194 123.135 33.3127 123.175 33.1794 123.175H26.2594C26.2594 123.189 26.2594 123.215 26.2594 123.255C26.2594 123.295 26.2594 123.329 26.2594 123.355C26.286 123.902 26.406 124.415 26.6194 124.895C26.8327 125.362 27.1394 125.742 27.5394 126.035C27.9394 126.329 28.4194 126.475 28.9794 126.475C29.4594 126.475 29.8594 126.402 30.1794 126.255C30.4994 126.109 30.7594 125.949 30.9594 125.775C31.1594 125.589 31.2927 125.449 31.3594 125.355C31.4794 125.182 31.5727 125.082 31.6394 125.055C31.706 125.015 31.8127 124.995 31.9594 124.995H32.9194C33.0527 124.995 33.1594 125.035 33.2394 125.115C33.3327 125.182 33.3727 125.282 33.3594 125.415C33.346 125.615 33.2394 125.862 33.0394 126.155C32.8394 126.435 32.5527 126.715 32.1794 126.995C31.806 127.275 31.3527 127.509 30.8194 127.695C30.286 127.869 29.6727 127.955 28.9794 127.955ZM26.2594 121.795H31.7394V121.735C31.7394 121.135 31.626 120.602 31.3994 120.135C31.186 119.669 30.8727 119.302 30.4594 119.035C30.046 118.755 29.5527 118.615 28.9794 118.615C28.406 118.615 27.9127 118.755 27.4994 119.035C27.0994 119.302 26.7927 119.669 26.5794 120.135C26.366 120.602 26.2594 121.135 26.2594 121.735V121.795ZM41.6531 127.755C41.5065 127.755 41.3931 127.715 41.3131 127.635C41.2331 127.542 41.1931 127.429 41.1931 127.295V114.235C41.1931 114.089 41.2331 113.975 41.3131 113.895C41.3931 113.802 41.5065 113.755 41.6531 113.755H46.7331C47.7198 113.755 48.5731 113.915 49.2931 114.235C50.0265 114.555 50.5931 115.035 50.9931 115.675C51.3931 116.302 51.5931 117.089 51.5931 118.035C51.5931 118.982 51.3931 119.769 50.9931 120.395C50.5931 121.022 50.0265 121.495 49.2931 121.815C48.5731 122.135 47.7198 122.295 46.7331 122.295H43.1931V127.295C43.1931 127.429 43.1465 127.542 43.0531 127.635C42.9731 127.715 42.8598 127.755 42.7131 127.755H41.6531ZM43.1731 120.615H46.6331C47.6198 120.615 48.3598 120.395 48.8531 119.955C49.3465 119.515 49.5931 118.875 49.5931 118.035C49.5931 117.209 49.3531 116.569 48.8731 116.115C48.3931 115.662 47.6465 115.435 46.6331 115.435H43.1731V120.615ZM57.7684 127.955C56.3951 127.955 55.3018 127.535 54.4884 126.695C53.6751 125.842 53.2284 124.682 53.1484 123.215C53.1351 123.042 53.1284 122.822 53.1284 122.555C53.1284 122.275 53.1351 122.049 53.1484 121.875C53.2018 120.929 53.4218 120.102 53.8084 119.395C54.1951 118.675 54.7218 118.122 55.3884 117.735C56.0684 117.349 56.8618 117.155 57.7684 117.155C58.7818 117.155 59.6284 117.369 60.3084 117.795C61.0018 118.222 61.5284 118.829 61.8884 119.615C62.2484 120.402 62.4284 121.322 62.4284 122.375V122.715C62.4284 122.862 62.3818 122.975 62.2884 123.055C62.2084 123.135 62.1018 123.175 61.9684 123.175H55.0484C55.0484 123.189 55.0484 123.215 55.0484 123.255C55.0484 123.295 55.0484 123.329 55.0484 123.355C55.0751 123.902 55.1951 124.415 55.4084 124.895C55.6218 125.362 55.9284 125.742 56.3284 126.035C56.7284 126.329 57.2084 126.475 57.7684 126.475C58.2484 126.475 58.6484 126.402 58.9684 126.255C59.2884 126.109 59.5484 125.949 59.7484 125.775C59.9484 125.589 60.0818 125.449 60.1484 125.355C60.2684 125.182 60.3618 125.082 60.4284 125.055C60.4951 125.015 60.6018 124.995 60.7484 124.995H61.7084C61.8418 124.995 61.9484 125.035 62.0284 125.115C62.1218 125.182 62.1618 125.282 62.1484 125.415C62.1351 125.615 62.0284 125.862 61.8284 126.155C61.6284 126.435 61.3418 126.715 60.9684 126.995C60.5951 127.275 60.1418 127.509 59.6084 127.695C59.0751 127.869 58.4618 127.955 57.7684 127.955ZM55.0484 121.795H60.5284V121.735C60.5284 121.135 60.4151 120.602 60.1884 120.135C59.9751 119.669 59.6618 119.302 59.2484 119.035C58.8351 118.755 58.3418 118.615 57.7684 118.615C57.1951 118.615 56.7018 118.755 56.2884 119.035C55.8884 119.302 55.5818 119.669 55.3684 120.135C55.1551 120.602 55.0484 121.135 55.0484 121.735V121.795ZM65.2798 127.755C65.1465 127.755 65.0332 127.715 64.9398 127.635C64.8598 127.542 64.8198 127.429 64.8198 127.295V117.835C64.8198 117.702 64.8598 117.589 64.9398 117.495C65.0332 117.402 65.1465 117.355 65.2798 117.355H66.1998C66.3332 117.355 66.4465 117.402 66.5398 117.495C66.6332 117.589 66.6798 117.702 66.6798 117.835V118.715C66.9465 118.262 67.3132 117.922 67.7798 117.695C68.2465 117.469 68.8065 117.355 69.4598 117.355H70.2598C70.3932 117.355 70.4998 117.402 70.5798 117.495C70.6598 117.575 70.6998 117.682 70.6998 117.815V118.635C70.6998 118.769 70.6598 118.875 70.5798 118.955C70.4998 119.035 70.3932 119.075 70.2598 119.075H69.0598C68.3398 119.075 67.7732 119.289 67.3598 119.715C66.9465 120.129 66.7398 120.695 66.7398 121.415V127.295C66.7398 127.429 66.6932 127.542 66.5998 127.635C66.5065 127.715 66.3932 127.755 66.2598 127.755H65.2798ZM72.8975 127.755C72.7642 127.755 72.6508 127.715 72.5575 127.635C72.4775 127.542 72.4375 127.429 72.4375 127.295V114.015C72.4375 113.882 72.4775 113.775 72.5575 113.695C72.6508 113.602 72.7642 113.555 72.8975 113.555H73.8375C73.9708 113.555 74.0775 113.602 74.1575 113.695C74.2508 113.775 74.2975 113.882 74.2975 114.015V120.975L78.2375 117.695C78.3975 117.562 78.5175 117.475 78.5975 117.435C78.6908 117.382 78.8375 117.355 79.0375 117.355H80.0975C80.2175 117.355 80.3175 117.395 80.3975 117.475C80.4775 117.555 80.5175 117.655 80.5175 117.775C80.5175 117.829 80.4975 117.889 80.4575 117.955C80.4308 118.022 80.3708 118.089 80.2775 118.155L75.6575 121.995L80.7775 126.975C80.9375 127.109 81.0175 127.229 81.0175 127.335C81.0175 127.455 80.9775 127.555 80.8975 127.635C80.8175 127.715 80.7175 127.755 80.5975 127.755H79.5575C79.3575 127.755 79.2108 127.735 79.1175 127.695C79.0242 127.642 78.9042 127.549 78.7575 127.415L74.2975 123.155V127.295C74.2975 127.429 74.2508 127.542 74.1575 127.635C74.0775 127.715 73.9708 127.755 73.8375 127.755H72.8975ZM86.1347 127.955C85.388 127.955 84.748 127.862 84.2147 127.675C83.6814 127.489 83.248 127.262 82.9147 126.995C82.5814 126.729 82.328 126.462 82.1547 126.195C81.9947 125.929 81.908 125.715 81.8947 125.555C81.8814 125.409 81.928 125.295 82.0347 125.215C82.1414 125.135 82.248 125.095 82.3547 125.095H83.2347C83.3147 125.095 83.3747 125.109 83.4147 125.135C83.468 125.149 83.5347 125.202 83.6147 125.295C83.788 125.482 83.9814 125.669 84.1947 125.855C84.408 126.042 84.668 126.195 84.9747 126.315C85.2947 126.435 85.688 126.495 86.1547 126.495C86.8347 126.495 87.3947 126.369 87.8347 126.115C88.2747 125.849 88.4947 125.462 88.4947 124.955C88.4947 124.622 88.4014 124.355 88.2147 124.155C88.0414 123.955 87.7214 123.775 87.2547 123.615C86.8014 123.455 86.1747 123.289 85.3747 123.115C84.5747 122.929 83.9414 122.702 83.4747 122.435C83.008 122.155 82.6747 121.829 82.4747 121.455C82.2747 121.069 82.1747 120.635 82.1747 120.155C82.1747 119.662 82.3214 119.189 82.6147 118.735C82.908 118.269 83.3347 117.889 83.8947 117.595C84.468 117.302 85.1814 117.155 86.0347 117.155C86.728 117.155 87.3214 117.242 87.8147 117.415C88.308 117.589 88.7147 117.809 89.0347 118.075C89.3547 118.329 89.5947 118.582 89.7547 118.835C89.9147 119.089 90.0014 119.302 90.0147 119.475C90.028 119.609 89.988 119.722 89.8947 119.815C89.8014 119.895 89.6947 119.935 89.5747 119.935H88.7347C88.6414 119.935 88.5614 119.915 88.4947 119.875C88.4414 119.835 88.388 119.789 88.3347 119.735C88.2014 119.562 88.0414 119.389 87.8547 119.215C87.6814 119.042 87.448 118.902 87.1547 118.795C86.8747 118.675 86.5014 118.615 86.0347 118.615C85.368 118.615 84.868 118.755 84.5347 119.035C84.2014 119.315 84.0347 119.669 84.0347 120.095C84.0347 120.349 84.108 120.575 84.2547 120.775C84.4014 120.975 84.6814 121.155 85.0947 121.315C85.508 121.475 86.1214 121.649 86.9347 121.835C87.8147 122.009 88.508 122.242 89.0147 122.535C89.5214 122.829 89.8814 123.169 90.0947 123.555C90.308 123.942 90.4147 124.389 90.4147 124.895C90.4147 125.455 90.248 125.969 89.9147 126.435C89.5947 126.902 89.1147 127.275 88.4747 127.555C87.848 127.822 87.068 127.955 86.1347 127.955Z" fill="white"/>
</svg>
